# xmcd
#
# Track frame offsets:
#	150
#	12100
#	32000
#	45220
#	73087
#	94925
#	107742
#	128467
#	163415
#	185792
#	206175
#	222835
#	240865
#	254420
#	268300
#	286910
#	299492
#
# Disc length: 4286 seconds
#
# Revision: 19
# Processed by: cddbd v1.5.2PL0 Copyright (c) Steve Scherf et al.
# Submitted via: audiograbber 1.83.01
#
DISCID=0110bc11
DTITLE=Gary Moore - Sill Got The Blues
DYEAR=1990
DGENRE=Blues Rock
TTITLE0=Moving On
TTITLE1=Oh Pretty Woman
TTITLE2=Walking By Myself
TTITLE3=Still Got The Blues
TTITLE4=Texas Strut
TTITLE5=Too Tired
TTITLE6=King Of The Blues
TTITLE7=As The Years Go Passing By
TTITLE8=Midnight Blues
TTITLE9=That Kind Of Woman
TTITLE10=All Your Love
TTITLE11=Stop Messin' Around
TTITLE12=The Stumble
TTITLE13=Left Me With The Blues
TTITLE14=Further On Up The Road
TTITLE15=Mean Cruel Woman
TTITLE16=The Sky Is Crying
EXTD=YEAR: 1990
EXTT0=
EXTT1=
EXTT2=
EXTT3=
EXTT4=
EXTT5=
EXTT6=
EXTT7=
EXTT8=
EXTT9=
EXTT10=
EXTT11=
EXTT12=
EXTT13=
EXTT14=
EXTT15=
EXTT16=
PLAYORDER=
